<?xml version="1.0" encoding="UTF-8"?><svg id="Warstwa_2" xmlns="http://www.w3.org/2000/svg" viewBox="0 0 69.81 80.96"><defs><style>.cls-1{fill:#010101;}.cls-2{fill:#3bf;}.cls-3{fill:#fff;}.cls-4{fill:#ff9f9f;}</style></defs><g id="Warstwa_3"><path class="cls-1" d="M23.63,64.64c3.51-3.38,4.48-8.45,6.02-12.91,2.18-7.23,4.23-16.08,5.96-23.49,1.27,7.39,2.77,16.21,4.55,23.44,1.24,4.46,2.02,9.37,5.15,12.95-6.98-3.92-10.48-18.58-11.96-26.1l3.92.11c-1.83,7.33-6.36,22.8-13.64,25.99h0Z"/><path class="cls-4" d="M37.86,36.16l9.79-6.95c2.56-1.82,1.27-5.85-1.86-5.85h-21.38c-3.17,0-4.43,4.1-1.81,5.88l10.24,6.96c1.52,1.03,3.53,1.01,5.03-.05h-.01Z"/><path class="cls-3" d="M55.76,10.87c0,2.58.49,4.95,1.31,6.81,1.09,2.48,2.76,4.06,4.64,4.06,3.29,0,5.95-4.87,5.95-10.87s-2.65-10.87-5.94-10.87c-1.79,0-3.4,1.45-4.5,3.74,3.39,3.53,2.91,5.91-1.46,7.13Z"/><path class="cls-2" d="M68.67,10.87c0,2.58-.49,4.95-1.31,6.81-1.09,2.48-2.76,4.06-4.64,4.06-3.29,0-5.95-4.87-5.95-10.87S59.43,0,62.72,0c1.79,0,3.4,1.45,4.5,3.74l-5.09,5.3,6.55,1.83h0Z"/><path class="cls-3" d="M.01,10.87c0,2.58.49,4.95,1.31,6.81,1.09,2.48,2.76,4.06,4.64,4.06,3.29,0,5.95-4.87,5.95-10.87S9.25,0,5.96,0c-1.79,0-3.4,1.45-4.5,3.74,3.39,3.53,2.91,5.91-1.46,7.13h.01Z"/><path class="cls-2" d="M13.26,10.87c0,2.58-.49,4.95-1.31,6.81-1.09,2.48-2.76,4.06-4.64,4.06-3.29,0-5.95-4.87-5.95-10.87S4.02,0,7.3,0c1.79,0,3.4,1.45,4.5,3.74l-5.09,5.3,6.55,1.83Z"/><path class="cls-1" d="M.61,52.55c4.9,24.82,37.29,32.12,56.5,18.88,3.17-2.18,5.93-4.95,7.89-8.19,2.36-2.99,4-6.65,4.61-10.69,1.26,9.1-3.43,16.34-10.8,21.35-13.96,9.41-33.45,9.41-47.41,0C4.07,68.91-.71,61.64.61,52.55h0Z"/></g></svg>