<?xml version="1.0" encoding="UTF-8"?><svg id="Warstwa_8" xmlns="http://www.w3.org/2000/svg" viewBox="0 0 291.91 323.94"><defs><style>.cls-1{fill:#fc6b29;}.cls-2{fill:#010101;}.cls-3{fill:#fc5305;}.cls-4{fill:#fff;}.cls-5{fill:#ff5002;}.cls-6{fill:#578d0b;}</style></defs><g id="Warstwa_9"><path class="cls-3" d="M229.79,100.04c-.41.11-.66-.23-1.05-.11-.12.04-.16.29-.07.31h.48c-.03.18-.15.29-.34.41l-.79.46s-.15.03-.21,0c-.1-.04-.07-.13,0-.16.06-.03.14-.08.25-.24-.3.04-.53.16-.92,0-.84,1.42-2.79.69-2.8,1.88l-.83.43-1.54.79c-.42.21-.72.51-1.21.3-.15.37-.48.6-.85.79l-4.39,2.19c-.76.38-1.52.78-2.34,1.06-.3.1-.77-.16-.95.09l-.5.68c-.53.5-1.4.52-1.99.89s-1.05.84-1.75,1.01c-.22.05-.48.5-.82.36-.27-.11-.56-.19-.86.05-.13.11-.19.24-.16.55-.27-.1-.63.02-.69.19-.15.45-.64.37-.93.55-.32.2-.48.63-.99.31-.09-.06-.37.05-.33.14.03.06.08.31,0,.34l-1.88.7c-.4.15-.88.02-1.05.64l-1.17.04c-.15.69-.68,1.02-1.32,1.11-.41.49-.98.79-1.53.46-.09.35-.22.47-.44.53-.13.04-.34-.06-.47-.07-.21.08-.43.35-.67.29l-.67-.16c-.52.18-1,.03-1.22-.42.67-.39-.4-.41-.37-.65l.05-.39c-.11-.2-.42-.23-.63-.22.09-.31,0-.5-.16-.74.33-.22.84-.15,1.18-.21.65-.78,1.41-1.16,2.28-1.62l2.14-1.11c.44-.23.67-.69,1.03-.84l.91-.37c.2-.08.5-.3.71-.36.62-.18,1.11-.35,1.59-.79l.57-.23c1.35-1.3,2.24-.76,2.9-1.88.84-.11,1.57-.45,2.02-1.14.76.04,1.32-.31,1.71-.9l1.1-.51c.55-.26.99-.4,1.47-.77.21-.16.62-.14.91-.15.3-.68.95-.57,1.46-.78.9-.38,1.64-1.03,2.46-1.51l2.51-1.47,3.85-2.31.76-.48,3.43-2.05,1.37-.71c.21-.11.59-.32.78-.42l1.18-.63,7.9-4.7.84-.59c.61-.42,1.19-.97,1.91-1.09v.41s-.58.43-.58.43c-.25.18-.58.34-.74.57l-.23-.04-.74.62c-.18.15-.36.2-.49.34l-.13.14-.69.27c-.28.11-.58.21-.78.47,0,0,.06.07.12.19.2-.15.34-.22.74-.29-.13.36-.33.5-.69.61-.21.13.02.42.23.2.32-.35.75-.41,1.1-.61l1.23-.73-.17-.58s.04-.11.07-.14c.05-.06.15-.07.23-.04l.24-.09c.1-.04.28.04.17.17-.08.1-.22.14-.25.21-.02.05.05.17.31.17-.02-.23-.03-.64.19-.78l1.24-.79c0,.18-.02.37.08.53.03,0,.13,0,.16,0,.1-.22.05-.47.05-.7l4.91-2.6c.4-.21.81-.46,1.18-.42l.22.03c-.35.63-1.14.56-1.36,1.08-.33.09-.64.3-.99.56.2.27,1.08-.22,1.09-.55.47.1.82-.38,1.19-.59l1.13-.65c.42-.24.85-.45,1.31-.63.42-.16.78-.62,1.36-.41l-.62.54c-.53.2-.91.44-1.37.73l-1.92,1.23.12.16,4.55-2.32c.49-.25,1.1-.27,1.54-.67.37-.34.76-.36,1.26-.31.33.03.71-.24,1.1.1-.12.13-.26.47-.15.62.07.1.32.22.37.42-.19.38-.61.62-.71,1.13.7-.14,1.16-.5,1.66-.93-.02.54-.45.71-.78.91l-1.36.82c-.07.04-.13.28-.1.34s.23.05.37.14l-1.89.94-6.02,3.4-4.64,2.52-5.31,2.79-2.66,1.58-5.02,2.73ZM246.54,86.48c-.09-.1-.2-.08-.35-.08-.12,0-.29.03-.19.29.2-.01.32-.1.54-.21ZM245.86,86.82c0-.08-.07-.15-.15-.15s-.15.07-.15.15.07.15.15.15.15-.07.15-.15ZM244.89,87.16c.27.14.39-.07.39-.2l-.39.2ZM241.94,87.51l-.07.07.07.07.07-.07-.07-.07ZM241.53,87.78l-.07.07.07.07.07-.07-.07-.07ZM240.22,88.46c-.26-.11-.34.21-.03.17.15.04.2-.15.03-.17ZM235.83,90.51c.3.05.4-.14.39-.21s-.29-.12-.46.06c-.29,0-.14.3.07.15ZM235.12,91.59l1.15-.59c-.04-.42-.41-.11-.54-.13-.45-.05-1.24-.1-1.37.48.23-.11.46-.18.55-.13s.12.35.21.37ZM233.44,92.49l1.17-.63c-.29-.09-.45-.25-.51-.5l-.88.48.21.65ZM233.25,92.47c-.52.08-.71.18-1.09.41.5.15.82-.11,1.09-.41ZM227.05,95.79c-.37-.02-.8.06-.96.52.4-.12.67-.3.96-.52ZM225.4,96.65c.38.08.47-.2.54-.32-.22.05-.54.04-.54.32Z"/><path class="cls-3" d="M48.73,84.94c.17.23.52.32.88.57.13-.22.03-.48.07-.72h.43c.14.36.72.59,1.1.64.29.37.76.49,1.13.73.17.12.33.25.58.22.02-.01.04-.04.04-.07.02-.21.79-.25.96-.21.2.05.13.26.07.47s.29.2.31,0l.05-.32c.26.14.6.22.83.38.1.23-.19.32-.26.43-.05.2.35.3.47.2.09-.07.1-.26.1-.42l.5.27c.21.11.4.17.58.11.13-.06.21.08.29.12l.39.55c-.11.13-.24.22-.33.42l3.87,2.25c0-.05-.01-.12-.05-.17-.06-.08-.24-.08-.24-.4.45.04.67.13,1.03.26-.28-.43-.65-.63-1.14-.7.16.14.18.49.06.51-.27.03-.45-.27-.42-.4.03-.1.17-.34.1-.52-.41,0-1.03-.18-1-.69,0-.16.4-.18.46-.14.37.35.79.54,1.25.82l2.98,1.81,2.16,1.26,2.04,1.15,1.94,1.09,9.22,5.38,3.91,2.15c.37.2.72.53,1.16.6.6.09.99.44,1.53.69l1.6.74c.72.34,1.67.55,2.22,1.16.33.37.63.34,1.02.56l2.59,1.48,1.81.93,1.29.65,1.13.77,1.79.81c.4.18.7.32,1.01.66.44.49,1.27.6,1.82.91l1.94,1.1c.65.37,1.06,1.31,1.07,1.31l.47.07c.19.1.02.7-.25.68-.17-.01-.29-.04-.39.09-.08.09-.01.2.1.34-.31.79.63.73.77,1.3-.72-.47-1.47.51-1.95.12l-.08.09.11.34-2.47-1.07c-.47-.2-.91-.23-1.27-.68l-.87-.18c-.23-.74-.89-.69-1.42-.97l-1.27-.65-1.36-.55c-.52-.21-.87-.43-1.4-.67l-.85-.4c-.67-.31-1.27-1.07-2.09-1.11-.46-.02-.7-.36-1.03-.48-.52-.19-.87-.26-1.27-.7-.24-.27-.93-.62-1.3-.67-.59-.08-.79-.33-1.21-.63-.69-.5-1.64-.84-2.44-1.11-1.17-.4-2.25-1.45-3.98-2.05-.95-.33-1.74-.75-2.6-1.27-.34-.2-.73-.34-1.12-.54l-1.16-.61c-.51-.27-1.3-.42-1.68-.9-.28-.35-.57-.32-.85-.47l-4.17-2.17-.07.12-.15.37c-.07-.04-.23-.04-.25-.16l-.08-.39c-.33.19-.56.14-.78-.15.07-.12.15-.33.08-.43-.11-.16-.64-.35-.82-.34-.09,0-.17.13-.24.28l-.83-.46c-1.49-.82-2.88-1.67-4.39-2.46l-4.53-2.37-6.37-3.47-2.53-1.46-2.6-1.49c-.14-.32-.19-.61,0-.98-.54-.38-1.04-.79-1.62-.96l-1.52-1.32c.61-1.47,1.36-.98,2.32-1.37.61.29,1.16.75,1.85.9,1.3.27,2.15,1.28,3.21,1.57ZM50.81,86c-.31-.29-.58-.63-1.07-.59.31.36.72.47.98.72l.09-.14ZM50.9,86.09l-.05.18c.14.04.2-.14.05-.18ZM44.83,86.27l-.07.07.07.07.07-.07-.07-.07ZM53.05,86.56l.08-.09c-.08-.11-.19,0-.08.09ZM53.43,86.71c-.11.15.05.29.17.25.05-.01.14.04.21-.08.06-.1-.02-.19-.08-.2-.07-.02-.26-.02-.3.03ZM56.27,87.73c-.04-.14-.26-.24-.47-.34-.12.13-.03.25.08.33.09.07.29.11.4,0ZM56.69,87.91c-.26-.11-.34.21-.03.17.15.04.2-.15.03-.17ZM61.7,90.25l-.07.07.07.07.07-.07-.07-.07ZM61.16,90.38l-.07.07.07.07.07-.07-.07-.07ZM60.84,90.61l.1-.04c-.13-.09-.08.1-.1.04ZM62.25,90.52l-.07.07.07.07.07-.07-.07-.07ZM61.65,90.8c0-.08-.07-.15-.15-.15s-.15.07-.15.15.07.15.15.15.15-.07.15-.15ZM62.32,91.44c.26.15.4.04.56-.15.1-.12.09-.17,0-.31-.08-.12-.25-.32-.44-.19.04.1.19.31.09.41l-.21.24ZM61.84,90.93l-.07.07.07.07.07-.07-.07-.07ZM63.21,91.07v.09s0,.09,0,.09v.09s0-.09,0-.09v-.18ZM63.83,91.47c-.26-.11-.34.21-.03.17.15.04.2-.15.03-.17ZM64.52,92.33c-.41-.26-.73-.54-1.26-.53.6.47,1.2.78,1.96,1.08-.06-.42-.45-.39-.7-.55ZM67.18,99.23c-.02.11.12.22.16.19.07-.05.07-.15.05-.2-.02-.08-.19-.13-.21,0ZM67.99,99.47c-.16-.21-.47.01-.21.18l.21-.18ZM103.76,116.91c-.14-.11-.28-.23-.61-.19.12.24.32.29.52.26l.08-.07Z"/><path class="cls-3" d="M196.73,45.01c.43.09.72.87,1.66.69.31.44.91.41,1.42.26l1.58.84,1.66.42.29.52c.78.12,1.36.47,1.99.88.27.18.65.2.9.49s.87.2,1.13.4c.4.3.56.71,1.21.72.46,0,.88.51,1.26.72l2.32,1.28,1.87,1,1.93.94c.38.19.53.33.85.52l1.84,1.07c.3.17.7.04.95.44.22.35.7.37,1.08.22-.11.54,1.12,1.16,1.92,1.5.18-.15.3-.22.43-.24-.04.54.55.8.96.86.93.13,1.05.98,2.32.81-.01.27.35.34.46.48.28.34.65.43,1.03.37.26.3.56.76,1.04,1l1.71.88h1.33c.03.17.12.53.33.47.16-.05.36-.08.49.03.06.05.06.15.06.32l6.44,3.45c.48.26.98.49,1.51.44.41.73,1.16,1.43,2.1,1.17-.05.12-.02.21.08.25.04-.02.08-.05.09-.09.02-.06.18-.11.19-.06l.09.24.6.65c.24.27.67.27.93.43l1.99,1.18c.44.26.77.6,1.37.56.09,0,.31.14.35.21.03.06.02.15-.01.3.21.16.48.48.79.48.25-.01.65-.11.75.25.03.13-.11.49,0,.52l.6.17,1.07.8c.58.67,1.18,1.09,1.91,1.57l2.65,1.73,4.34,3.18c.22.16.36.26.46.44.07.14-.05.64-.22.58-1.09-.42-1.93-1.12-2.87-1.74-.15.12-.32.32-.47.33-.42.02-.78-.18-1.04-.48l.65-.1-3.76-2.41-.09.13,2.15,1.73h-.77c.21.58.78.65.81,1.08,0,.1-.12.38-.25.32-.41-.21-1.01-.37-1.28-.76-.22-.31-.22-.53-.64-.79l-.76-.47-.1.08.36.49c.02.08-.2.17-.27.1l-.1.12c.46.41,1.07.72,1.43,1.27-.15.21-.36.31-.58.27l-.14-.03c-.03-.41-.42-.59-.74-.87l-.64-.56-.27.55c-.79-.49-1.21-1.02-1.51-.97-.48.08-.7.95-.9.86l-.4-.17c-.41.1-.62-.06-.95-.26l-1.58-1.01c-.02-.26-.2-.41-.43-.38s-.37-.11-.52-.2l-.44-.79c-.16-.28-.57-.59-.88-.74-.96-.46-1.74-1.03-2.58-1.68-.36-.28-.8-.43-1.12-.81-.19-.23-.46-.2-.73-.06.17-.29-.09-.68-.29-.52-.07.13.02.53-.27.53-.08,0-.2-.11-.27-.15-.04-.25-.19-.5.09-.76-.2-.27-.56-.49-.89-.49-.61-.59-1.38-.97-2.15-1.27-.29-.43-.9-.85-1.51-1.04l-.16.51-2.75-1.72c-.09-.23-.27-.32-.48-.3-.03,0-.09-.01-.14.01.02-.16-.1-.29-.26-.4l-1.84-1.3-2.55-1.31c-.21-.11-.23-.57-.32-.73-.15-.25-.68-.16-.86-.27l-2.72-1.69-5.16-3.03-.12.16c.65.62,1.66.78,2.26,1.64l-3.76-1.98c-.34-.18-.66-.43-.98-.54l-.38-.13c.01-.79-.76-1.01-1.4-1.28l-.6-.4-.71-.46c-.17-.11-.55-.28-.73-.4l-2.41-1.66-4.15-2.72-5.3-3.73c-1.04-.73-1.98-1.47-3.07-2.03.04-.14.13-.2.22-.24.32-.12.58.25,1.1.21-.84-.97-2.14-1.08-2.64-1.99-.1-.18.24-.37.38-.27l.29.21c.62.45,1.14,1.03,1.85,1.17ZM195.16,44.45l-.07.07.07.11.07-.11-.07-.07ZM197.85,46.71c-.27-.2-.4-.62-.93-.65.26.35.56.48.83.69l.1-.05ZM197.95,46.78l-.07.12.07-.12ZM214.53,58.09h-.09s.09,0,.09,0h.18s-.09,0-.09,0h-.09ZM214.98,58.21c-.17-.07-.21.13-.12.19l.12-.19ZM215.04,58.26l-.08.15c.03.08.11.1.2.1h.15c-.05-.12-.15-.21-.27-.25ZM215.32,58.5c.02.05.04.13-.02.23l1.37.86.12-.13c-.38-.45-.94-.73-1.47-.95ZM242.97,68.27l.2-.04c-.22-.17-.15.14-.2.04ZM233.84,69.41v.09s0,.09,0,.09v.09s0-.09,0-.09v-.18ZM248.25,71.25l-.07.14.07.07.07-.07-.07-.14ZM238.92,72.7l-.07.07.07.07.07-.07-.07-.07ZM253.1,76.9c.16.14.11-.11.14-.04l-.14.04ZM252.39,78.08s-.16,0-.05.12l.05-.12ZM252.27,78.82c.17.15.11-.13.15-.04l-.15.04Z"/><path class="cls-3" d="M102.07,45.94c0,.25-.25.25-.46.34-1.12.5-1.96,1.29-2.94,2.02-1.95,1.45-3.86,2.81-5.91,4.08l-1.43,1.06c-.32.24-.74.31-1.04.6-.43.41-.97.57-1.43.9l-1.58,1.13c-.87.62-2.21,1.09-3.73,2.47l-1.79,1.09c-.71.43-1.52.67-2.14,1.32-.12.13-.37,0-.37-.08s.06-.16.22-.32c-.26-.1-.56.08-.71.28l.35.2c-.33-.46-.69-.07-.2.21-.17-.25-.18-.35-.19-.35-.12.05-.24.1-.31.25.26.04.29.24.2.34-.05.06-.22.17-.28.13s-.09-.31-.08-.37c-.47-.03-.77.41-1.15.55-.92.35-1.65.88-2.44,1.37l-1.81,1.13c-.1.06-.17.32-.31.28l-.44-.12c-.08.73-.69,1.05-1.27,1.25-1.08.37-1.92,1.05-2.81,1.68l-1.28.9-3.14,2c-.1,0-.19-.09-.17-.13l.18-.39c-.44-.15-.72.38-1,.57-.68.46-1.67.77-2.18,1.39-.07.08-.28.09-.37.11-.14.03-.21.25-.07.28.14.03.18.09.24.19.04.06.18.05.18-.09v-.33s.18.01.18.01c.13.06.16.21.13.37-.13.03-.32.21-.4.32-.11-.03-.22-.04-.34,0-.08.03-.13.14-.1.27-.11.03-.32.11-.41.17-.11-.3-.36-.25-.54-.26-.33-.02-.39.35-.55.44l-1.16.66c-.62.35-1.16.72-1.73,1.16-.89.68-2.29,1.29-2.31,1.48l-.04.46c-.02.17-.2.3-.37.41l-3.03,1.77c-.36.21-.94.08-1.33.33l.05-.49c0-.09-.25-.29-.31-.23l-1.03.94-.72-.32c-.1-.09-.07-.37-.3-.36-.25.01-.28.34-.39.42-.45.31-.9.54-1.05,1.02l-.25.05h-.43c-.02-.4.22-.83.58-.96s.97-.65.93-.87c-.02-.1-.09-.2-.18-.26.09-.1.25-.17.31-.38-.54.06-.96.43-1.21.83-.18.09-.43.06-.55.22s-.13.35-.12.53l-1.15.57c-.14.07-.27-.39-.2-.52.23-.44.92-.54.78-.81l-.22-.41c.46-.61,1.29-.84,1.67-1.5-1.17.43-1.99,1.17-2.97,1.79-.29.18-.77.28-.84.67-.05.27-.11.47-.35.53-.19.05-.42-.06-.62-.33-1.02.56-1.82,1.39-2.9,1.75-.17-.15-.26-.6-.1-.72l4.63-3.44,3.74-2.42,1.12-.81c.29-.21.72-.43,1.04-.57.47-.21.71-.47,1.08-.73l1.39-.96,2.16-1.27c.6-.52,1.37-.71,2.05-1.11l1.8-1.05c.61-.17,1-.52,1.52-.8l3.45-1.81,3.67-1.94,6.25-3.35,7.87-4.32c2.07-1.14,3.99-2.33,6.15-3.3,1.2-.53,2.25-1.19,3.4-1.81l3.83-2.07,1.95-.91,1.12-.57c.4-.2,1.09-.21,1.41-.47.07-.02.24.02.31-.07.03-.05.04-.13.03-.19.08-.02.2-.07.29-.11l1.17-.46c0,.07-.06.17.04.33,1.12-.55,1.53-.41,2.58-1.42.32.05.56-.07.83-.27l1.72-1.29c.11.33.12.49.12.79-.54-.15-.54.15-.79.32l-1.7,1.19c.38.19.68-.03,1.01-.17.09.1.1.25.03.39ZM100.86,46.2c.19-.13.16-.29.08-.37l-.21.21c-.08.09.03.24.13.16ZM59.69,72.27c.18-.16,0-.45-.2-.27l-.2.22c-.05.06,0,.18.09.18.06,0,.15,0,.31-.14Z"/><path class="cls-3" d="M158.19,31.31c-.08.52-.36,1.04-.57,1.57l-1.06,2.65c.54.11.49-.24.55-.54.07-.34.82-.39,1.01-.11l-2.29,4.6-1.37,2.76-1.78,4.08c-.52.24-.7.7-.71,1.25-.48.41-1.1.77-1.44,1.28l-.21,1.22c-.09.52.33,1.04.1,1.59-.21-.11-.52-.24-.59-.14l-.27.38c-.12-.28-.29-.45-.5-.47-.16-.02-.34.15-.44.31-.17.27-.35.44-.76.37-.08.01-.23-.23-.51-.37.31-.78.34-1.58-.04-2.38l-.17-.94c-.04-.2-.22-.35-.39-.37-.12-.02-.25.03-.5.09.17-.38-.09-.63-.17-1l-.17-.77c-.11-.49-.31-.99-.72-1.39-.04.62.39.97.48,1.45-.17.14-.54.12-.65-.16l-.95-2.47c-.09-.24-.05-.55-.38-.6l-.02-.24c0-.13.02-.29-.02-.46-.02-.08-.13-.15-.26-.1-.12-.18-.22-.46-.28-.68.05.01.25,0,.26-.06-.01.06-.44-1.09-.87-1.92l-1.03-2-.57-.95c-.26-.44-.7-.78-.86-1.32-.06-.21-.16-.35-.37-.32.06-.06.02-.16-.03-.16,0-.12.02-.21.09-.3.05-.08.27-.17.31-.08.1.2.16.35.29.42s.31.04.39-.03c.41,1.03.86,2,1.51,2.9.21-.48-.11-.81-.26-1.2l-1.07-2.79c-.27-.69-.5-1.37-.88-2.02-.26-.44-.06-1-.08-1.57-.4.05-.82.65-.65,1.07-.17.04-.31.08-.4.16-.35.31.26.83-.3.86-.06-.15-.31-.23-.46-.34,0-.8-.56-1.24-.46-1.49.03-.07.26-.11.29-.05l.17.4,1.6-2.61,1.85-2.82,3.15-4.92c.13-.21.31-.39.66-.42-.07,1.1-.97,1.87-1.17,2.69l.61-.18c.38-.11-.32-1.17.59-.9-.1-.64.41-.91.62-1.36.2-.42.42-.92.81-1.15l.08-.55.48-.28c.29-.17.34-.67.67-.82,1.47-.67,2.13,1.01,2.84,2.05.24.35.57.5.68,1.01l.5.63c-.06.56.18.85.58,1.15l1.07,1.5c.36.51.55.98.87,1.5.24.39.83.67.61,1.29.23.22.5.44.67.69l.99,1.44c.16.23.16.5.43.72.52.43.64,1.16.89,1.71ZM150.94,41.33l1.01-1.89.47-1.44.71-1.79c.16-.41.47-.72.57-1.2.21-1.05.66-1.98,1.19-2.91l.16-.62c.53-.62.26-1.17-.01-1.81l-.45-1.05c-.39-.57-.64-1.26-1.32-1.63-.15-.66-.47-1.21-.93-1.79l-.76-1.3c-.06-.59-.05-.75-.53-1.12-.6-.45-.89-1.33-1.34-1.92-.31-.41-.54-.72-.8-1.27l-.75.87c-.57.67-.88,1.76-1.58,2.32-.43.33-.26.66-.44.97l-1.53,2.62c-.75,1.29-1.75,2.42-2.32,3.83.04.49.38.9.57,1.32l.76,1.72c.33.75.66,1.45.7,2.31.49.47.72,1.08.82,1.77.55.59.48,1.45.82,2.1l1,1.87.89,1.85c.32.66.9,1.16,1.04,2.05.34-.33.31-.79.55-1.14.37-.53.62-1.07.93-1.66l.56-1.07ZM142.81,25.66c.32-.46.51-.83.76-1.33.23-.46.64-.82.74-1.49-.58.1-.59.56-.83.86-.59.73-1.1,1.41-1.45,2.28l-.53.8c-.05.07.11.26.17.24s.24-.08.31-.17l.83-1.19ZM156.21,36.73c.34-.53.49-.66.48-1.1-.4.29-.57.7-.48,1.1ZM144.83,44.04v.09s0,.09,0,.09v.09s0-.09,0-.09v-.18ZM145.1,44.59v.09s0,.09,0,.09v.09s0-.09,0-.09v-.18Z"/><path class="cls-3" d="M175.61,34.85c0,.06,0,.13.03.2.04.08.16.11.25.07,0,.1,0,.2-.04.31-.13.33.2.88.55.97.05.01.12.13.24.11-.27,1.51,1.25,1.88.97,2.9.53.13.43.65.61.95.3.49.86.89.74,1.58-.04.21-.01.68.29.76.26.06.53.02.74.25l1.81,3.12-.02.31c.06.14-.1.21-.15.11-.02-.04-.11-.09-.18-.12l-.15.12,1.88,3.35c.08,0,.16.02.2.04l-.51-1.15h.44c.21.16.27.64.39.87l.42.81c.3.57.75,1.07.81,1.71l.03.34c0,.08.13.14.25.11l.31.94.21,1.14c.02.09.25.26.19.43-.03.09-.01.25-.29.14-.03.06.06.22.13.26.06.03.14.02.27-.02l.44.81c.14.26.23.43.12.66-.04.08-.04.22-.04.32l-.32.08s-.09,0-.13,0c-.08-.21-.12-.45-.46-.54-.04.24.06.39.16.52-.06.35-.36.38-.66.41-.61.05-.73-.58-1.3-.38l-.94-1.35-.54-.69c-.27-.34-.52-.6-.55-1.08-.03-.59-.37-.96-.78-1.32l-.51-1.23c-.43-.36-.86-.68-.67-1.29-.31-.65-.69-1.24-1.26-1.73.06-.74-.37-1.27-.74-1.88-1.09-1.1-.82-2.18-1.55-2.56l-.72-2.27c-.4-.66-.82-1.11-.84-1.92l-.67-.94c-.17-.71-.4-1.25-.81-1.84l-.43-.9c-.55.14-.49.48-.65.74l-1.76,2.91c-.15.25-.12.76-.45.87-.43.15-.46.36-.62.76l-1.09,1.26c-.25.29-.44.64-.64.87-.04.62-.38,1.21-.88,1.58-.33.25-.39.61-.6.95l-.91,1.48c-.23.38-.1.77-.58.98-.41.18-.69.67-.77,1.14-.38.24-.64.53-.65,1.02-.51.18-.88.49-.95,1.07-.4.12-.53.55-.7.78l-.59.81c-.36.5-.51.97-.25,1.63-.26.23-.52.34-.85.41l.1.53c-.14-.07-.24-.09-.32-.08s-.14.24-.17.34c-.35.18-.38-.45-.53-.6-.91-.94-1.71,1.72-2.95,2.59-.15.1-.24-.11-.21-.21.04-.15.14-.19.24-.35l1.27-1.96c.1-.15.48-.45.2-.6-.27-.14-.49.35-.65.35-.34-.05.28-.89-.2-.64-.1.05-.17.13-.29.29l-.91,1.24c-.87.61-1.45,1.7-2.41,2.28-.22-.41.09-.89.36-1.09.62-.47.48-1.11.76-1.63.51-.96,3.18-3.08,4.34-5.95.15-.36.05-.83.32-1.18l1.13-1.47c1.02-1.59,2.22-2.94,3.39-4.41l3.34-4.22c.38-.48.82-.91,1.01-1.44.68-.32,1.1-1.03,1.45-1.69l1.73-1.75c.16-.17.38-.48.23-.72-.09-.01-.1-.05-.13-.09-.05-.07.05-.27.18-.24.14.03.54.07.59-.08l.52-1.48.21.22c.1.1.15.02.15-.04v-.42c.11-.02.25.14.29.38.22-.12.22-.3.29-.59l.26.63.42-.56.26,1.17c.11.12.48-.05.59-.09.11.19-.15.32-.32.28-.12.32.33.5.42.73l.39.98c.13.32.4.53.39.84ZM179.6,43.3c.07.11.18,0,.07-.07l-.07.07ZM179.81,43.36l-.08.06c.04.17.11.33.21.48l.07-.07c0-.17-.1-.37-.2-.48ZM180.14,43.91l-.14.13c.12.32.46.03.14-.13ZM180.55,44.87v-.34c0-.07-.18-.15-.25-.03-.07.17.1.39.19.49l.06-.12ZM180.61,45.13l.07-.08c-.08-.11-.18,0-.07.08ZM180.96,45.5c.11-.29-.33-.33-.27-.03.06.11.17.18.2.21l.06-.19ZM181.02,45.82l.07-.08c-.08-.11-.18,0-.07.08ZM181.14,46.12l.06-.22-.06.22ZM181.32,46.08l-.13.11.08.25.14-.15-.1-.21ZM183.57,50.1c-.11-.12-.23,0-.25.07l.74,1.24c0-.54-.28-.83-.49-1.31ZM184.19,51.45l-.07.07.07.07.07-.07-.07-.07ZM184.33,51.72l-.07.07.07.07.07-.07-.07-.07ZM184.95,53.3c-.07-.45-.11-.91-.47-1.4-.13.59.19,1.04.39,1.47l.08-.07ZM185.01,53.37s-.06.04-.07.07c-.04.08,0,.17.07.2l.07-.07-.07-.2ZM185.14,53.77l.07-.08c-.08-.11-.18,0-.07.08ZM185.84,55.67l-.07.1.07.07.07-.07-.07-.1Z"/><path class="cls-3" d="M128.98,36.28c.15.5.7.84,1.1,1.16l6.18,7.8,2.15,2.93c1.02,1.39.78,2.51,2.04,4.01l3.2,3.8c.15.18-.06.59.05.75l1.08,1.52c.09.13.08.35-.01.39-.1.05-.31,0-.42-.1l-1.27-1.32c-.23-.23-.34-.53-.64-.55-.07-.4-.62-.78-1.25-1.68l-.22-.11s-.19-.03-.2.05c-.01.07.15.3.18.39-.16.18-.48.02-.75-.28-.22.33.08.59.3.75l.29.43c.29.8.79,1.37,1.22,2.1-1.12-.13-1.46-1.86-2.49-2.6-.22-.16-.73-.16-.85.08l-.34.66-.65-1c-.22.13-.29.28-.42.32.09-.25.03-.49-.06-.55-.06-.04-.16,0-.3-.06.53-.6.12-1.06-.2-1.56l-.53-.84c-.15-.24-.53-.6-.61-.84-.17-.53-.62-.63-.86-.96s-.52-.72-.73-1.05c-.34-.55-.44-1.11-1.21-1.33-.21-.06-.13-.72-.31-.83-.31-.19-.38-.48-.5-.8-.14-.37-.32-.67-.45-1.08-.14-.46-.93-.69-1.16-1.09-.32-.54-.27-1.38-.8-1.82-.61-.5-.98-1.15-1.43-1.73-.38-.48-.74-.8-.88-1.5l-.76-1.07c-.08-.41-.3-.5-.47-.78l-.93-1.6-.93,1.68-.45,1.2c-.5.64-.81,1.27-.98,2.08l-.51.68c-.25.7-.28,1.59-.7,2.16-.61.82-.62,1.55-.94,1.96l-.66.83c-.48.6-.54,1.18-.8,1.86-.21.54-.99.98-1.02,1.6s-.21,1.07-.85,1.27l-.25,1.15c-.58.34-.95.91-.98,1.59-.03.6-.67,1.13-1.03,1.61l-.97,1.28c-.35.17-.66.22-.99.45s-.84-.08-1.06-.27c.02-.01.03-.03.03-.06.12,0,.15-.11.15-.22,0-.1-.02-.2-.16-.23-.15.13-.43.38-.57.29-.18-.21-.35-.56-.25-.71l.31-.47c.1-.16,0-.31.17-.38s.26.03.29.19c.31-.52.27-.96-.09-1.42.24-.41.43-.8.54-1.2.02-.07.03-.16.02-.24.11.03.24-.02.26-.11.04-.13,0-.24,0-.34l.02-.37c.11.03.22-.03.24-.11.02-.09,0-.17,0-.22l.03-.21c.14,0,.27-.09.32-.2.06-.15.04-.29.06-.43l.04-.22c.1-.05.28-.02.33.06.13.22-.39.55-.11.84.42-.45.44-.9.64-1.26l3.28-5.95.94-1.49c.29-.46.44-.85.41-1.37l.45-.77c.2-.35.46-.54.35-1.06.46-.16.74-.49.53-1.05.81-.44.82-1.33,1.2-2.01.35-.64.86-1.07.75-1.85-.04-.3.41-.68.5-1,.19-.69.49-1.15,1.02-1.62l.29-1.26c.22.17.19.53.41.62.15-.15.12-.3.12-.36,0-.05.17-.13.18-.09l.14.42c.11-.23.15-.43.46-.4-.06.26-.17.39-.1.71l.28-.54c.35.51.39,1.03.59,1.58.11.14.53.09.78.04-.18.44-.15.74.14,1.06l2.04,2.26ZM113.41,51.72l-.07.07.07.07.07-.07-.07-.07ZM113.37,52.21c.08-.21-.18-.25-.23-.22-.07.05-.05.18-.07.26l-.53,1.65s.11.02.21.02l.63-1.71Z"/><path class="cls-3" d="M219.26,84.91c-.11.1-.38.11-.45.39.29.09.37-.13.45-.26l1.78-.59c.05.07.07.47-.05.52l-1.83.8c-.34.15-.98.11-1.26.43-.22.26-.27.3-.66.32l-1.31.59c-.56-.02-1.07-.15-1.57.16l-.05.54c-.12.04-.24.15-.4.09v-.18c.02-.14-.12-.25-.16-.05-.97.32-2.08.63-1.91,1.37-.11.05-.31.27-.42.15l-.12-.13c-.05-.05-.12,0-.13.05l-.05.21-4.01,1.71-3.98,1.67c.31.24.6-.02.86-.11l2.23-.82,5.4-2.25,2.76-1.23c.27-.12.51-.31.62-.5.28.08.53.06.83-.15.1,0,.19.25.17.37l-2.47,1.24-5.23,2.42-2.65,1.06-1.17.49-2.3.97c-1.67.71-3.35,1.26-4.94,2.17l-1.65.71c-.89.54-1.71.97-2.66,1.25.08-.1,0-.31-.12-.3-.43.05-.64.26-.9.4-.69.36-1.4.76-2.24.74.03-.26.19-.48,0-.73-.21.18-.28.47-.41.46l-.49-.07c-.24-.04-.74.38-1.01.16-.44-.35.66-.47,1.35-.9-.15-.1-.27-.15-.28-.36.19-.09.59-.26.64-.44.11-.51-.32-.77-.59-.96-.41-.28-.68-.03-1.2,0,.39-.35.89-.58.98-1.04-.26-.13-.5-.33-.53-.55-.04-.31.07-.48.36-.68l.12-.26.23.07,1.43-.83c.64.29,1.26-.03,1.44-.64.3-.02.49.01.77.11.07-.53.46-.5.78-.61l1.65-.61.72-.48c.64-.12,1.13-.47,1.66-.77.68-.2,1.22-.56,1.94-.51.66-.71,1.53-1,2.38-1.37.32-.14.55-.21.95-.06.12-.46.68-.9,1.1-.82.1.02.29.25.41.13.05-.05.06-.37.14-.4l2.09-.97c.3-.14.8.13,1.07-.24l.03-.32c.23-.28.77-.12.98-.24.64-.47,1.19-.74,1.99-.66.12-.27.34-.47.64-.59l1.16-.44c.17-.07.67.21.77-.08.18-.53,1.18-.91,1.89-.7.47-.74,1.35-.84,2.05-1.1.49-.18.81-.18,1.28-.32l1.32-.38c.38-.11.45.03.78.09.52.1,1.13.02,1.58.31-.4-.13-.45.23-.15.2.38.15.59.59.83.94l-.93.44c.32,1.5-1.42,1.23-2.3,2.03ZM198.27,95.06c.28-.1.04-.47-.17-.21-.14.02-.36.05-.4.12-.07.14.07.26.2.21l.37-.13ZM197.29,95.33c.25.11.34-.17.08-.17l-2.81,1.13c-.95.38-1.95.6-2.8,1.17-.4.27-.73.55-1.26.71.53.27.84-.17,1.23-.32l1.38-.54,4.17-1.99Z"/><path class="cls-3" d="M110.01,95.11l-.11.03-.12.18c.11.25.14.52.03.76-.12.28-.36.36-.69.42.11.21.13.49.02.57-.15.1-.35.15-.66.18.04.26.25.33.43.4.02.06.04.11.07.16-.22.08-.45.08-.66.02.09.25.17.5.38.54.12.02.27-.01.42.01l.51.1c.04.17.14.31.28.47-.86-.08-1.25-.38-1.77-.23-.37-.34-.88-.56-1.34-.81l-.88-.47.53-.23-2.43-1.19c-.05.21,0,.37-.01.57l-.82-.28v-.23s-.11-.11-.19-.08c-.04.02-.08.09-.09.16-.07-.03-.23-.07-.24-.17-.02-.23-.08-.35-.32-.45-.21-.09-.38-.09-.39.25-.24-.06-.51-.09-.55-.37-.1-.74-.89-.4-2.02-.92l-1.34-.62-2.64-1.01-2.24-.83-1.86-.74-2.47-1.1-2.54-1.02-1.2-.6c0-.11.05-.22.15-.3l1.49.46c.38.12.67.47,1.1.35-1.08-.86-2.44-.84-3.82-1.61-.1-.06-.24-.04-.41.03l-.08-.79c-.63-.09-1.09-.35-1.59-.69-.3-.2-.77-.2-1.08-.29s-.52-.38-.83-.46l-.39-.09-1.67-.99-1.02-.33c-.29-.09-.41-.42-.76-.5.2-.31.31-.56.4-.91-.48-.16-.71-.43-1.08-.8.33.02.49-.36.75-.51.68-.42,1.5-.19,2.22-.14.51.04.93.06,1.32.46l.63-.14,2.3.87.28.38.48-.06,1.54.57c.05.02-.03.24-.21.22.2.24.57.11.84.09l5,1.99c0,.16-.13.23-.22.27l1.31.26,3.01,1.38,1.51.71c.7.33,1.61.54,2.14,1.09.27.29.25.22.65.28.48.08,1.1.33,1.58.55l2.62,1.2,3.14,1.26c.03.78.85.63,1.35.65s.94.67,1.52.54c.08.51.6.51.74,1.52ZM106.58,97.31h-.09s.09,0,.09,0h.18s-.09,0-.09,0h-.09ZM107.29,97.79c.08-.2-.02-.26-.11-.35-.08-.07-.23-.15-.33.09l.44.26ZM108.07,97.51l-.07.07.07.07.07-.07-.07-.07Z"/><path class="cls-3" d="M99.36,64.46c.01.08.16.19.2.14.1-.1.08-.32.08-.42.17-.03.46-.09.61-.21,0,.26.15.41.38.34.13-.04.3-.07.36-.27.12,0,.22-.07.32-.1l.65-.18c.32-.09.55-.29.83-.51.32-.26.81-.1,1.15-.23l1.06-.41,1.83-.44c-.1.21-.14.42-.07.51.05.07.24.19.24.39-.47.16-.94.73-1.34.92-.46.22-.65.47-.97.72-.58.43-1.09.77-1.61,1.3-.29.3-.84.57-1.22.78l-1.76.98c-.4.23-.68.39-1.07.6l-1.96,1.05-1.65.69c-.54.23-.79.6-1.49.61l-.79.65c-.51.15-.93.31-1.36.59-.66.12-1.29.35-1.68.91-.74.08-1.3.49-1.92.81l-2.18,1.11c-.33.17-.56.16-.86.44-.18.16-.66.35-.92.39-1.22.19-2.8,1.16-4.18,1.74l-1.63.69c-.47.2-.77.53-1.17.75l-1.72.93c-.73.39-1.4.61-1.86,1.44-.1.18-.4.29-.55.25-.48-.13-.03-.96-.44-.8-.23.09-.41.48-1.32.53.08-.25.03-.46-.06-.5-.15-.07-.4.04-.42.21-.05.41-.37.2-.54.26l-1.58.52c-.12.04-.19-.15-.14-.23.2-.36.76-.29.82-.9-.59.12-1.2.59-1.34.2-.06-.18.12-.41.33-.5l.33-.14c.13-.06.19-.27.02-.27-.99.03-1.64.7-2.39.67-.42-.01,0-.55,1.17-1.14,1.95-.98,3.76-2.03,5.65-3.12l3.57-1.78c.71-.36,1.47-.47,2.11-1.05.41-.37,1.2-.24,1.59-.47s.62-.54,1.13-.68c.46-.13.9-.28,1.4-.39l2.19-1.16c.64-.34,1.2-.64,1.85-.92l2.98-1.27,1.08-.45,6.69-2.92c.54-.24,1.02-.62,1.57-.65Z"/><path class="cls-1" d="M79.62,85.18l.39.09c-.02.23.11.34.36.43.13.05.33.27.47.02.31.09.78.09,1.08.29.51.34.96.61,1.59.69l.08.79c.17-.07.31-.09.41-.03.04.22.23.4.49.5l.75.3c-.1.09-.15.2-.15.3-.41-.21-.94-.21-1.36-.54-.21-.16-.38-.31-.62-.28l-.13.12c.23.4.7.54,1.13.73l2.18.99,3.3,1.37,5.35,2.08.38.04c.07,0,.13-.13.09-.22l2.64,1.01,1.34.62c1.13.52,1.92.18,2.02.92-.11.02-.24,0-.42.1l1.75.92,2.11.92,2.25,1.06c.34.16.87.16,1.03.65-.32.11-.85.06-1.14-.14-.58-.39-1.09-.28-1.7-.42-.4-.09-.98-.35-1.36-.54l-3.86-1.87-1.85-.9-4.4-1.77-1.2-.48-1.25-.5-3.93-1.67-8.61-4.13-2.34-1.13c-.61-.3-1.39-.22-2.06-.75.14-.35,1.57.39,1.27-.1-.42-.7-2.18-.4-2.02-1.69.49.49.8.78,1.33.63.47-.13.96.27,1.18.66.25-.11.45.09.79.23l1.8.68c.33.13.62.28.84,0ZM79.28,86.05c-.65-.45-1.27-.61-1.94-.72.2.5.68.33.91.49.36.24.67.42,1.03.23ZM81.66,87.17c-.31-.18-.47-.07-.56,0,.25.11.41.07.56,0ZM82.34,87.44c-.17-.08-.39-.13-.56,0,.21.11.36.07.49.06l.07-.06ZM82.42,87.51l-.07.07c-.02.12.04.23.2.21.05,0,.16.01.2-.08.02-.04-.08-.13-.13-.15l-.2-.06ZM83.04,87.68l-.13.06.13-.06Z"/><path class="cls-1" d="M199.81,45.96c-.5.15-1.11.18-1.42-.26-.13-.19-.23-.34-.49-.49l-1.45-.82c-.04.33.2.44.28.62-.71-.14-1.23-.72-1.85-1.17l-.29-.21c-.14-.1-.48.09-.38.27.5.91,1.81,1.02,2.64,1.99-.53.05-.79-.33-1.1-.21-.1.04-.19.1-.22.24-.06-.04-.25.1-.2.14l2.57,2.02,1.89,1.38,4.34,2.96,4.65,2.9c.49.31.91.66,1.5.82.04.16.2.08.17-.07.17.12.56.29.73.4l.71.46.6.4c.64.27,1.42.49,1.4,1.28l-.71-.42-4.55-2.6-5.24-3.26c-1.79-1.11-10.32-7.21-9.74-7.56l.36-.22c-.56-.57-1.51-.97-1.88-1.77-.22-.48-.33-1.09-.9-1.34-.1-.05-.2-.26-.17-.34.04-.09.3-.15.37-.07l.17.2c1.08.65,2.06,1.36,2.97,2.19.18-.21.29-.22.57-.37-.35-.21-.64-.34-.75-.83l1.38.35c.09.02.05.29-.04.3-.12.02-.25.11-.26.18l4.31,2.91Z"/><path class="cls-1" d="M66.71,68.29l1.28-.9c.9-.63,1.73-1.32,2.81-1.68.59-.2,1.19-.52,1.27-1.25l.44.12c.14.04.21-.21.31-.28l1.81-1.13c.79-.5,1.52-1.02,2.44-1.37.38-.15.68-.58,1.15-.55,0,.06.02.33.08.37s.23-.08.28-.13c.09-.1.06-.3-.2-.34.07-.15.19-.2.31-.25l.04-.06c.15-.2.46-.38.71-.28-.16.16-.23.24-.22.32s.25.21.37.08c.62-.64,1.43-.88,2.14-1.32l1.79-1.09c1.52-1.38,2.86-1.85,3.73-2.47-.02.15.09.19.2.13l1.23-.74,5.97-3.76c2.8-1.76,5.36-3.71,7.87-5.8-.21-.07-.35.04-.48.05.07-.14.06-.29-.03-.39-.33.14-.63.36-1.01.17l1.7-1.19c.25-.17.25-.47.79-.32,0-.3,0-.46-.12-.79l-1.72,1.29c-.27.2-.51.32-.83.27.22-.22.55-.33.69-.75l-2.14,1.22c-.42.24-.75.45-1.17.62l-1.17.46c.1-.25.39-.4.66-.57,1.58-.97,3.1-1.87,4.54-3.01-.22-.07-.38-.06-.47-.34.56-.08.97-.39,1.57-.36l-.65.74c-.05.17.37.39.6.23l3.2-2.3s.26.07.3.31c-.82.22-.98.97-1.26,1.56-.36.76-1.27,1.03-1.8,1.74.15.01.51.33.32.49-3.08,2.66-6.32,4.94-9.63,7.22l-1.72,1.05-4.65,2.88-3.33,1.9-5.08,3.28-6.09,3.51-6.85,3.42ZM78.9,61.23l.2-.21c-.33-.46-.69-.07-.2.21Z"/><path class="cls-1" d="M158.13,34.88c-.19-.29-.94-.23-1.01.11-.06.3-.02.65-.55.54l1.06-2.65c.21-.53.49-1.05.57-1.57.23-.08.3-.29.2-.48l-1.93-3.4c-.31-.55-.62-1.01-.95-1.55l-2.95-4.83-.22-.84c.35-.05.54.17.72.45l3.49,5.42,3.09,4.75c.14-.19.22-.25.31-.3.11-.06.21.06.18.14-.02.04-.05.23-.1.26-.44.25-.31.8-.45,1.09s-.62.48-.7.96c-.11.69-.46,1.33-.74,1.89ZM158.69,31.69l-.09.28c-.09.26-.33.48-.21.86,1.05-1.24.37-1.33.3-1.13ZM157.99,34.04v.09s0,.09,0,.09v.09s0-.09,0-.09v-.18Z"/><path class="cls-1" d="M230.58,68.19l-4.56-2.29-2.99-1.66-3.95-2.25-4.18-2.66c-.28-.18-.54-.3-.62-.6.32.11.64.37.98.54l3.76,1.98c-.61-.86-1.61-1.02-2.26-1.64-.01-.02-.05-.06-.09-.04l-1.37-.86-.14-.21c-.08,0-.16-.02-.2-.1h-.1c-.09-.07-.05-.27.12-.2.01.02.03.04.06.05.12.04.22.13.27.25h0c.54.21,1.09.49,1.47.94.02.04.06.05.09,0l5.16,3.03,2.72,1.69c.18.11.71.02.86.27.09.16.12.62.32.73l2.55,1.31,1.84,1.3c.16.11.28.24.26.4ZM225.09,64.81h-.09s.09,0,.09,0h.18s-.09,0-.09,0h-.09Z"/><path class="cls-1" d="M215.99,87.99c.02-.12-.07-.37-.17-.37-.3.22-.55.24-.83.15-.19-.06-.49-.03-.69.03l.05-.54c.5-.31,1-.18,1.57-.16l1.31-.59c.39-.02.44-.06.66-.32.28-.32.92-.28,1.26-.43l1.83-.8c.11-.05.1-.45.05-.52l.71-.31c.42-.04.65-.28.98-.4.47-.17.9-.2,1.38-.6.06.41-.26.61-.62.77l-1.84.78c.66.27,1.12-.08,1.74-.07-.59.57-1.3.68-2,.77-.27.04-.4.23-.61.33l-3.72,1.8-1.07.45Z"/><path class="cls-1" d="M117.5,44.46c-.11.17-.3.3-.46.53l-.38.55-.44.02.26-.6c1.55-2.43,2.72-4.99,4.13-7.5l1.52-2.6c.11.78-.4,1.2-.75,1.85-.37.68-.39,1.57-1.2,2.01.21.56-.08.89-.53,1.05.12.52-.14.71-.35,1.06l-.45.77c.03.52-.13.91-.41,1.37l-.94,1.49Z"/><path class="cls-1" d="M245.17,77.47l-2.32-1.37-3.44-2.2c-.23-.15-.53-.24-.56-.5.29,0,.2-.4.27-.53.2-.16.46.23.29.52.27-.14.54-.16.73.06.32.37.76.53,1.12.81.84.65,1.62,1.21,2.58,1.68.31.15.71.46.88.74l.44.79Z"/><path class="cls-1" d="M59.44,73.03c-.39.43-1.07.83-1.63,1.19l-3.76,2.41c-.31.2-.6.4-.94.34l.04-.46c.02-.19,1.42-.8,2.31-1.48.58-.44,1.11-.81,1.73-1.16l1.16-.66c.16-.09.22-.46.55-.44.18,0,.43-.04.54.26Z"/><path class="cls-1" d="M72.23,101.67c-.12,0-.28.01-.37.14-.04.07.01.23.18.2.05,0,.07-.03.19,0l1.09.96c.34.3.82.38,1.02.91-.9-.31-1.41-.87-2.15-1.31l-4.34-2.6.15-.37s-.13.04-.2.04c-.26-.17.04-.39.21-.18.02,0,.04.01.06.02l4.17,2.17ZM68.43,99.78l-.07.13.07.07.07-.07-.07-.13Z"/><path class="cls-1" d="M139.28,31.37l1.43,3.61c-.09.07-.26.1-.39.03s-.19-.22-.29-.42c-.04-.09-.25,0-.31.08-.06.09-.09.18-.09.3l-1.05-2.58c.56-.03-.05-.55.3-.86.09-.08.23-.12.4-.16Z"/><path class="cls-1" d="M235.63,70.73c.36.53,1.11.76,1.66,1.21.15.12.38.06.49.06.33,0,.69.22.89.49-.28.25-.13.51-.09.76-.31-.03-.68-.33-.98-.53l-3.65-2.51.16-.51c.61.19,1.22.61,1.51,1.04Z"/><path class="cls-1" d="M142.44,56.69c.09.49.89.67.88,1.82-.08.02-.29.01-.35-.07-.8-.94-1.51-1.96-2.48-2.63-.22-.16-.52-.41-.3-.75.27.3.59.45.75.28-.04-.1-.2-.32-.18-.39.01-.08.16-.07.2-.05l.22.11c.63.9,1.18,1.27,1.25,1.68Z"/><path class="cls-1" d="M112.35,53.21c-.11.4-.3.79-.54,1.2.36.47.4.91.09,1.42-.03-.16-.14-.26-.29-.19s-.06.23-.17.38l-.31.47c-.1.16.07.5.25.71.14.09.43-.16.57-.29v.45s0,.04-.02.06c-.65-.21-.54.56-1.11.95-.22-.71.4-.97.26-1.41-.03-.11-.22-.36-.35-.22-.12.13-.22.24-.34.24-.15,0-.27-.21-.14-.39l.59-.8,1.17-2.23c.09-.17.17-.3.34-.33ZM111.46,54.91c-.07.07-.06.32.03.36.02,0,.27-.18.21-.32-.03-.07-.15-.13-.24-.04Z"/><path class="cls-1" d="M157.3,55.82c0-.08-.14-.2-.17-.16l-1.65,1.85c-.31.35-.46.86-.98.98-.09-.56.2-.97.52-1.32.22-.25.27-.5.43-.72l.91-1.24c.12-.16.19-.24.29-.29.48-.24-.15.59.2.64.16,0,.39-.48.65-.35.29.15-.1.44-.2.6Z"/><path class="cls-1" d="M143.1,41.72c-.07-.04-.23-.09-.3-.23l-1.8-3.67-1.34-2.67c.21-.03.31.11.37.32.15.53.59.88.86,1.32l.57.95,1.03,2c.43.84.85,1.99.87,1.92-.01.06-.21.08-.26.06Z"/><path class="cls-1" d="M180.01,42.95c-.21-.22-.48-.18-.74-.25-.3-.07-.32-.54-.29-.76.12-.69-.44-1.1-.74-1.58-.19-.3-.08-.82-.61-.95.28-1.02-1.24-1.39-.97-2.9l3.36,6.44Z"/><path class="cls-1" d="M240.68,87.23v-.41c0-.35.36-.41.64-.56.41-.22.76-.68,1.21-.8,1.05-.28,1.7-.95,2.6-1.25.04.06.04.14.01.22l-4.46,2.8Z"/><path class="cls-1" d="M42.87,85.17c.59.17,1.09.58,1.62.96-.19.38-.14.67,0,.98l-.92-.49c-.35-.19-.9-.18-1.13-.6,1.02-.46-.38-.63-.92-1.16-.01,0-.02-.02-.02-.04-.43.04-.64-.45-.97-.63-.49-.27-1.06-.4-.78-1.11.14.65.61.87,1.14,1.03l.76.55s.03.03.05.05c.2.04.44.13.61.3.19.19.4.11.55.16Z"/><path class="cls-1" d="M186.58,56.92c.11-.23.02-.4-.12-.66l-.44-.81c-.13.04-.21.05-.27.02-.07-.04-.16-.2-.13-.26.28.1.26-.05.29-.14.06-.17-.17-.34-.19-.43l-.21-1.14c.21.04.32.25.44.48l1.13,2.17c.15.29.61.42.32.89-.29-.3-.64-.33-.84-.12Z"/><path class="cls-1" d="M49.68,84.79c-.04.24.06.49-.07.72-.36-.25-.71-.34-.88-.57.37-.29-.83-.71-1.61-1.18-.19-.11-.3-.55-.73-.54.38-.27.66.07.97.16.67.21,1.08.47,1.65.86.21.14.73.15.67.55Z"/><path class="cls-1" d="M170.31,33.49l-1.18,2.17c-.36.66-.77,1.37-1.45,1.69.15-.41.36-.77.63-1.17l1.44-2.13c.17-.25.28-.49.56-.55Z"/><path class="cls-1" d="M170.87,33.91c.04-.16-.05-.3-.23-.31-.09,0-.2-.03-.33-.11.45-.21.67.12.78-.3.15.24-.06.54-.23.72Z"/><path class="cls-1" d="M130.08,37.45c-.4-.32-.95-.67-1.1-1.16-.07-.22-.08-.4-.24-.65l-1.41-2.15.24-.04,2.02,2.98.48,1.03Z"/><path class="cls-1" d="M247.63,84.36l-.22-.03c-.04-.58.98-.54,1.81-1.26.49-.25.92-.5,1.45-.64-.41.46-.9.7-1.36.96l-1.68.96Z"/><path class="cls-3" d="M114.06,50.39c-.05.06-.09.11-.13.14-.13.09-.24-.08-.21-.2.11-.17.12-.45.17-.65.11.04.26-.02.26-.1v-.23s.3-.77.3-.77c.33,0,.32-.34.42-.58l.27-.65c.22-.04.38-.19.51-.36.02.06.08.19.02.31l-1.6,3.1Z"/><path class="cls-1" d="M108.91,97.65c-.19-.07-.4-.14-.43-.4.31-.03.52-.08.66-.18.11-.07.09-.35-.02-.57.32-.07.56-.14.69-.42.1-.24.08-.51-.03-.76.06-.04.1-.11.12-.18l.11-.03c.04.3-.11.65.08,1,.05.08.22.2.19.23l-.19.22c-.12.14-.12.26-.23.29-.15.04-.35-.03-.38-.36-.23.2-.11.98.21,1.12-.35.12-.53.04-.77.04Z"/><path class="cls-1" d="M45.26,78.42c.09.07.16.16.18.26.04.22-.58.74-.93.87.04-.14-.1-.22-.25-.16l-.58.21c-.01-.18,0-.36.12-.53s.37-.13.55-.22l.9-.44Z"/><path class="cls-1" d="M101.97,63.78l-.65.18c.02-.11.14-.22-.04-.38-.2.17-.22.34-.28.48-.06.19-.23.23-.36.27-.23.07-.38-.08-.38-.34.76-.59,1.91-1.13,2.07-.6-.28-.07-.51.03-.57.18-.03.07.18.16.21.22Z"/><path class="cls-1" d="M253.11,80.48c-.33-.07-.6-.23-.92-.43l-.73-.45.27-.55.64.56c.32.28.71.46.74.87Z"/><path class="cls-1" d="M46.35,79.39c.04.24-.2.24-.32.31-.51.33-.89.66-1.43.76.15-.49.6-.71,1.05-1.02.11-.08.14-.41.39-.42.24-.01.21.28.3.36Z"/><path class="cls-1" d="M63.57,70.28l-.97.67.06-.32-.08-.31c.28-.19.56-.72,1-.57l-.18.39s.07.13.17.13Z"/><path class="cls-1" d="M186.54,57.23c.28.26.58.67.37,1.13-.46-.27-.58-.7-.7-1.05l.32-.08Z"/><path class="cls-1" d="M114.06,50.39l.16.02c-.2.35-.22.81-.64,1.26-.28-.28.24-.62.11-.84-.05-.08-.22-.11-.33-.06.04-.21.21-.33.36-.44-.03.12.07.29.21.2.04-.03.09-.08.13-.14Z"/><path class="cls-1" d="M66.72,99.3c-.38.02-.72-.34-.99-.49.07-.14.16-.27.24-.28.18-.01.7.17.82.34.07.1,0,.31-.08.43Z"/><path class="cls-1" d="M228.79,79.79c-.02.08.01.15.03.2-.47-.21-.98-.39-1.36-.72.01-.06-.02-.13-.11-.17.02.03,0-.16.15-.05,0,.02.03.05.05.06.43.19.9.38,1.24.68Z"/><path class="cls-1" d="M192.92,98.28c-.27.08-.52.44-.96.37l-.07-.27c.26-.13.48-.35.9-.4.12-.01.2.2.12.3Z"/><path class="cls-1" d="M176.41,36.4c-.36-.09-.69-.64-.55-.97.39.13.57.59.55.97Z"/><path class="cls-1" d="M239.35,88.23c.12.11.28.14.44.08-.23.14-.21.55-.19.78-.26,0-.33-.12-.31-.17.03-.07.16-.11.25-.21.11-.12-.07-.21-.17-.17l-.24.09v-.45s.22.04.22.04Z"/><path class="cls-1" d="M194.68,117.01c.24.06.47-.2.67-.29.05.38-.16.76-.63.77l-.04-.48Z"/><path class="cls-1" d="M229.79,100.04c-.17.09-.39.3-.64.2h-.48c-.09-.02-.06-.28.07-.31.39-.12.64.22,1.05.11Z"/><path class="cls-1" d="M108.98,97.81c-.05.07-.15.23-.12.31.04.11.19.19.26.25-.15-.03-.3,0-.42-.01-.21-.04-.29-.29-.38-.54.21.07.44.07.66-.02Z"/><path class="cls-1" d="M145.9,46.36c-.08.01-.2.03-.24.06-.09-.49-.52-.83-.48-1.45.41.4.61.9.72,1.39Z"/><path class="cls-1" d="M246.27,85.44s.07,0,.1,0c0,.33-.89.82-1.09.55.35-.25.66-.46.99-.56Z"/><path class="cls-1" d="M62.02,70.9l-.02.39c-.02.25-.18.34-.47.32l-.18-.19c.15-.26.4-.4.67-.52Z"/><path class="cls-3" d="M61.35,71.43l.18.19c-.04.25-.33.29-.45.4-.1-.13-.12-.26-.12-.4.12-.1.27-.16.4-.19Z"/><path class="cls-3" d="M62.66,70.64l-.06.32c-.16.11-.33.37-.6.34l.02-.39c.18-.08.34-.36.63-.26Z"/><path class="cls-1" d="M55.48,86.85c0,.16-.02.34-.1.42-.12.1-.52,0-.47-.2.07-.11.36-.2.26-.43l.31.22Z"/><path class="cls-3" d="M116.66,45.54c-.14.2-.22.41-.36.63l-.29-.13.21-.47.44-.02Z"/><path class="cls-1" d="M61.08,72.02c-.13.12-.2.2-.39.25.04-.16,0-.31-.13-.37.07-.18.29-.2.39-.28,0,.14.02.28.12.4Z"/><path class="cls-1" d="M253.25,80.51c.22.04.43-.06.58-.27.12.17.06.25,0,.38-.08.21-.21.21-.36.15-.1-.04-.18-.15-.22-.26Z"/><path class="cls-1" d="M116.3,46.17l-.31.5c-.07-.12-.19-.15-.31-.12,0-.25.19-.36.34-.51l.29.13Z"/><path class="cls-3" d="M183.16,48.46l-.43-.02c-.09-.1-.21-.42-.11-.53.32-.05.47.34.53.55Z"/><path class="cls-1" d="M241.32,87.36c0,.23.04.47-.05.7-.04,0-.14,0-.16,0-.1-.17-.07-.36-.08-.53l.3-.16Z"/><path class="cls-1" d="M54.35,86.26l-.05.32c-.02.2-.37.2-.31,0s.14-.42-.07-.47c-.17-.04-.94,0-.96.21l.17.14c-.08-.11-.19,0-.08.09l-.13-.17c-.25.02-.4-.11-.58-.22-.16-.5-.63-.67-1.13-.73-.38-.04-.96-.28-1.1-.64-.02-.15.09-.42-.16-.57l-2.62-1.54s.05-.11.05-.22l3.05,1.72,3.91,2.07Z"/><path class="cls-1" d="M186.09,57.32l-.3-.02c-.1-.13-.2-.28-.16-.52.34.09.38.33.46.54Z"/><path class="cls-3" d="M182.39,47.03c-.13,0-.27.04-.33.17-.09-.13-.16-.25-.13-.42v-.14s0-.14,0-.14h.14c.03.2.2.37.32.52Z"/><path class="cls-1" d="M113.31,50.99c-.03.13,0,.27-.06.43-.05.11-.17.19-.32.2.04-.26.11-.54.38-.62Z"/><path class="cls-1" d="M114.86,47.99c-.1.24-.09.57-.42.58.1-.25.11-.55.42-.58Z"/><path class="cls-1" d="M144.06,43.79c-.3-.03-.36-.33-.38-.6.34.04.29.36.38.6Z"/><path class="cls-1" d="M182.39,47.03c.09.1.12.2.04.33-.06.09-.13.12-.26.05-.08-.05-.07-.14-.11-.2.06-.13.2-.17.33-.17Z"/><path class="cls-1" d="M143.66,42.96c-.17.05-.29-.07-.29-.21,0-.09.04-.28,0-.35.13-.04.24.03.26.1.04.17.01.33.02.46Z"/><path class="cls-1" d="M115.64,46.98c-.14.17-.3.33-.51.36.06-.14.04-.48.27-.55.12-.04.23.13.25.19Z"/><path class="cls-1" d="M109.91,98.94c-.15-.16-.24-.3-.28-.47.1.02.31.06.41.18.06.08.12.31-.12.29Z"/><path class="cls-1" d="M219.26,84.91v.13c-.09.12-.16.35-.45.26.07-.28.34-.28.45-.39Z"/><path class="cls-1" d="M183.16,48.46c.02.07.09.21.16.26h-.44c-.03-.07-.09-.22-.15-.28l.43.02Z"/><path class="cls-1" d="M246.12,78.05c-.13-.09-.42-.12-.43-.38.23-.03.42.12.43.38Z"/><path class="cls-1" d="M99.64,64.19c0,.1.02.31-.08.42-.05.05-.19-.06-.2-.14-.04-.09,0-.22.08-.24l.2-.04Z"/><path class="cls-1" d="M112.64,52.53c0,.1.04.21,0,.34-.03.08-.15.14-.26.11,0-.08,0-.22.03-.33.02-.07.12-.14.23-.11Z"/><path class="cls-1" d="M228.42,80.51l-.04.32-.23-.12c-.05-.03-.03-.27.06-.33.18-.1.16.08.21.12Z"/><path class="cls-1" d="M182.07,46.51h-.14c-.03-.06-.08-.11-.14-.14l.02-.31c.08.03.19.08.22.14.06.1.02.23.03.31Z"/><path class="cls-1" d="M185.22,52.56c-.12.03-.24-.03-.25-.11l-.03-.34c.23.07.22.26.28.44Z"/><path class="cls-1" d="M60.28,72.58c-.11.15-.26.22-.43.27-.04-.13.02-.24.1-.27.12-.04.23-.03.34,0Z"/><path class="cls-1" d="M44.36,80.52l-.15.22c-.06.09-.26.08-.27-.02v-.21s.42.01.42.01Z"/><path class="cls-1" d="M231.21,68.48l-.35-.06c-.08-.01-.14-.13-.12-.24.2-.02.39.07.48.3Z"/><path class="cls-1" d="M229.52,80.8l.02-.34.19.06c.05.02.1.13.06.2-.07.13-.21.06-.28.08Z"/><path class="cls-3" d="M115.99,46.66s0,.09-.11.12c-.09.02-.15,0-.19-.07-.03-.05,0-.12,0-.17.12-.03.24,0,.31.12Z"/><path class="cls-1" d="M112.91,51.82c0,.06.02.14,0,.22-.02.08-.14.14-.24.11,0-.08.01-.21.07-.28.03-.04.11-.06.17-.06Z"/><path class="cls-1" d="M114.14,49.35v.23c0,.09-.15.14-.26.1.04-.16.06-.3.26-.33Z"/><path class="cls-1" d="M96.76,46.65c.01.06,0,.15-.03.19-.06.09-.24.06-.31.07.01-.1.06-.21.14-.23l.19-.04Z"/><path class="cls-1" d="M175.89,35.12c-.09.04-.22.01-.25-.07-.03-.07-.03-.14-.03-.2.09-.02.21,0,.26.09.03.05.02.12.02.18Z"/><path class="cls-3" d="M187.97,96.62l.39-.2c0,.13-.11.35-.39.2Z"/><polygon class="cls-3" points="42.39 78.8 42.48 78.8 42.57 78.8 42.48 78.8 42.39 78.8 42.3 78.8 42.39 78.8"/><polygon class="cls-3" points="41.97 79.07 42.07 79.07 42.16 79.07 42.07 79.08 41.97 79.08 41.89 79.07 41.97 79.07"/><path class="cls-3" d="M228.79,79.79c-.34-.3-.82-.49-1.24-.68l-.09.16c.38.33.89.51,1.36.72.25.11.55.28.72.46l-.02.34c-.14.04-.32.06-.52-.03l-.58-.26s-.02-.23-.21-.12c-.09.05-.11.3-.06.33l.23.12c.07.04.7.5.73.58.05.11-.01.21-.12.27s-.21-.03-.31-.06c-1.81-.43-2.67-2.03-2.72-.65l.09.06c.11.08,0,.23-.1.11l-.07-.1c-.13-.04-.25-.09-.41-.25-.27.22-.37.53-.33.93l-.83-.27c-.39-.54-.93-1.16-1.59-1.27-.38-.06-.49-.22-.84-.4l-2.39-1.29-1.74-.84-1.99-.92c-.8-.37-1.5-.72-2.35-.97l-2.63-1.2-2.24-1.15-1.44-.75c-1.22-.63-2.46-.99-3.64-1.74l-1.16-.58-1.23-.59-1.21-.58c-.55-.26-1.13-.44-1.51-.99l-.67-.13-1.79-1.11-1.06-.72c-.67-.45-1.14-1.19-2.02-1.34.08-.3,0-.61-.14-.65l-.58-.18c-.38-.31-.59-.69-1.19-.63.18-.54-.12-1.07.2-1.59l.57.43,2.12.77c.72.26,1.44.38,2.07.87l.17-.22s.14,0,.14.03c0,.04-.06.18-.08.25.21.13.5.15.72.22l.09-.09c-.03-.14-.24-.26-.23-.56l5.44,2.55,4.14,1.77,4.32,1.87,2.8,1.45c1.35.7,2.6,1.34,4.04,1.86,3.04,1.1,5.91,2.37,8.66,4.06l5.06,2.76c.12.07.2.16.24.24.08.13.03.3-.06.34-.54.21-1.43-.76-2.51-.65ZM196.95,64.2l-.08.07c.11.13.43.1.48-.04-.16-.22-.37-.08-.4-.03ZM227.5,79.05c-.14-.11-.13.09-.15.05l.15-.05ZM228.06,80.31c-.17-.35-.56-.46-.8-.21.27.2.53.3.8.21Z"/><rect class="cls-3" x="255.88" y="79.02" width=".1" height=".1" transform="translate(19.07 204.18) rotate(-45.01)"/><rect class="cls-1" x="245.32" y="84.1" width=".1" height=".1" transform="translate(12.39 198.19) rotate(-45.01)"/><rect class="cls-3" x="255.47" y="78.89" width=".1" height=".1" transform="translate(19.05 203.85) rotate(-45.01)"/><path class="cls-1" d="M181.93,46.78c-.07-.03-.08-.11,0-.14v.14Z"/><path class="cls-1" d="M238.83,88.82l.17.58-1.23.73c-.34.21-.78.26-1.1.61-.2.22-.43-.07-.23-.2.35-.12.56-.26.69-.61-.4.07-.54.14-.74.29-.06-.12-.12-.19-.12-.19.2-.26.51-.35.78-.47.21.16.53-.1.69-.27l.13-.14c.33.03.67-.19.95-.33Z"/><path class="cls-1" d="M235.12,91.59c-.09-.02-.13-.32-.21-.37s-.32.02-.55.13c.13-.58.92-.53,1.37-.48.13.01.5-.29.54.13l-1.15.59Z"/><path class="cls-1" d="M233.44,92.49l-.21-.65.88-.48c.06.24.22.4.51.5l-1.17.63Z"/><path class="cls-1" d="M233.25,92.47c-.26.3-.59.56-1.09.41.37-.23.57-.33,1.09-.41Z"/><path class="cls-1" d="M227.05,95.79c-.29.22-.57.4-.96.52.16-.46.59-.54.96-.52Z"/><path class="cls-1" d="M235.83,90.51c-.21.15-.36-.15-.07-.15.18-.18.46-.13.46-.06s-.09.27-.39.21Z"/><path class="cls-1" d="M246.54,86.48c-.22.11-.34.19-.54.21-.09-.26.08-.29.19-.29.15,0,.26-.02.35.08Z"/><path class="cls-1" d="M225.4,96.65c0-.29.32-.28.54-.32-.07.12-.17.4-.54.32Z"/><circle class="cls-1" cx="245.71" cy="86.82" r=".15"/><path class="cls-1" d="M240.22,88.46c.17.02.12.2-.03.17-.31.05-.23-.28.03-.17Z"/><path class="cls-1" d="M244.89,87.16l.39-.2c0,.13-.11.35-.39.2Z"/><rect class="cls-1" x="241.48" y="87.8" width=".1" height=".1" transform="translate(8.65 196.56) rotate(-45.01)"/><rect class="cls-1" x="241.89" y="87.53" width=".1" height=".1" transform="translate(8.96 196.77) rotate(-45.01)"/><path class="cls-1" d="M228.02,101.11l-1.55.89-3.96,2.64c-.07-.64.67-.63.88-.86.35-.39.62-.54,1-.84l.78-.61c-.33,0-.65.15-.84.25.01-1.19,1.96-.45,2.8-1.88.39.16.63.04.92,0-.11.16-.19.21-.25.24-.07.03-.09.12,0,.16.06.03.16,0,.21,0Z"/><path class="cls-1" d="M64.52,92.33c.25.16.63.13.7.55-.76-.29-1.36-.6-1.96-1.08.53,0,.85.27,1.26.53Z"/><path class="cls-1" d="M50.72,86.14c-.26-.25-.67-.36-.98-.72.49-.05.76.3,1.07.59l.09.08c.15.04.1.22-.05.18l-.13-.13Z"/><path class="cls-1" d="M62.32,91.44l.21-.24c.1-.11-.05-.31-.09-.41.19-.13.36.07.44.19.09.15.1.2,0,.31-.16.19-.3.3-.56.15Z"/><path class="cls-1" d="M56.27,87.73c-.11.11-.3.07-.4,0-.11-.09-.2-.21-.08-.33.22.1.44.2.47.34Z"/><path class="cls-1" d="M53.43,86.71c.04-.05.24-.05.3-.03.06.02.13.1.08.2-.07.12-.15.07-.21.08-.13.03-.29-.1-.17-.25Z"/><circle class="cls-1" cx="61.5" cy="90.8" r=".15"/><path class="cls-1" d="M63.83,91.47c.17.02.12.2-.03.17-.31.05-.23-.28.03-.17Z"/><path class="cls-1" d="M56.69,87.91c.17.02.12.2-.03.17-.31.05-.23-.28.03-.17Z"/><path class="cls-1" d="M67.18,99.23c.02-.13.19-.08.21,0,.01.05.02.15-.05.2-.04.03-.18-.09-.16-.19Z"/><polygon class="cls-1" points="63.21 91.07 63.22 91.16 63.22 91.25 63.21 91.34 63.21 91.25 63.21 91.16 63.21 91.07"/><rect class="cls-1" x="61.66" y="90.27" width=".1" height=".1" transform="translate(-45.79 70.11) rotate(-45.01)"/><rect class="cls-1" x="61.11" y="90.4" width=".1" height=".1" transform="translate(-46.05 69.76) rotate(-45.01)"/><path class="cls-1" d="M59.58,88.31c-.07-.04-.45-.02-.46.14-.03.51.58.69,1,.69.07.18-.07.41-.1.52-.03.13.15.42.42.4.12-.01.11-.36-.06-.51.49.07.86.27,1.14.7-.37-.12-.59-.22-1.03-.26,0,.32.18.32.24.4l.21.17c-.13-.09-.08.1-.1.04l-.06-.04-3.87-2.25c.09-.2.22-.29.33-.42h.35s.05-.06.05-.06c-.16-.19-.57-.39-.79-.49-.08-.04-.15-.17-.29-.12.02-.31-.24-.36-.47-.5l-1.46-.89-2.25-1.5c.47-.26,1.57.56,2.25,1.1.58-.14.75.1,1.24.42l1.16.77c.86.57,1.83.99,2.54,1.68ZM57.85,88.14l.02-.2c-.24-.08-.37.04-.02.2ZM58.58,88.36c-.08-.17-.36-.26-.48-.11-.02.14.3.29.44.21l.04-.1ZM58.67,88.59l.07-.08c-.08-.11-.18,0-.07.08Z"/><rect class="cls-1" x="62.2" y="90.54" width=".1" height=".1" transform="translate(-45.83 70.58) rotate(-45.01)"/><rect class="cls-1" x="61.79" y="90.95" width=".1" height=".1" transform="translate(-46.24 70.4) rotate(-45.01)"/><rect class="cls-1" x="44.78" y="86.29" width=".1" height=".1" transform="translate(-47.93 57.01) rotate(-45.01)"/><path class="cls-1" d="M197.75,46.76c-.28-.21-.57-.34-.83-.69.54.03.67.44.93.65l.1.07-.07.12-.13-.15Z"/><polygon class="cls-1" points="233.84 69.41 233.85 69.5 233.85 69.59 233.84 69.68 233.84 69.59 233.84 69.5 233.84 69.41"/><polygon class="cls-1" points="214.53 58.09 214.62 58.09 214.71 58.1 214.62 58.1 214.53 58.1 214.44 58.1 214.53 58.09"/><polygon class="cls-1" points="195.16 44.45 195.23 44.52 195.16 44.63 195.1 44.52 195.16 44.45"/><rect class="cls-1" x="238.87" y="72.72" width=".1" height=".1" transform="translate(18.55 190.3) rotate(-45.01)"/><path class="cls-1" d="M60.4,71.72l-.02.17v.33c0,.14-.15.15-.18.09-.06-.1-.1-.16-.24-.19-.15-.03-.07-.26.07-.28.09-.02.31-.03.37-.11Z"/><path class="cls-1" d="M59.69,72.27c-.16.14-.25.14-.31.14-.1,0-.14-.12-.09-.18l.2-.22c.2-.18.38.11.2.27Z"/><path class="cls-1" d="M100.86,46.2c-.11.08-.22-.07-.13-.16l.21-.21c.08.08.11.24-.08.37Z"/><path class="cls-1" d="M156.21,36.73c-.09-.39.08-.81.48-1.1.01.44-.13.57-.48,1.1Z"/><polygon class="cls-1" points="144.83 44.04 144.83 44.13 144.83 44.23 144.83 44.32 144.82 44.23 144.82 44.13 144.83 44.04"/><polygon class="cls-1" points="145.1 44.59 145.1 44.68 145.1 44.77 145.1 44.86 145.1 44.77 145.1 44.68 145.1 44.59"/><path class="cls-1" d="M183.57,50.1c.22.48.49.77.49,1.31l-.74-1.24c.02-.07.13-.19.25-.07Z"/><path class="cls-1" d="M184.87,53.37c-.2-.44-.52-.88-.39-1.47.36.5.4.96.47,1.4l.06.07.07.2s.03.05.13.13c-.08-.11-.18,0-.07.08-.07-.09-.11-.12-.13-.13-.06-.03-.1-.13-.07-.2-.03-.02-.06-.04-.07-.07Z"/><path class="cls-1" d="M179.6,43.3c.07.11.18,0,.07-.07l.13.13c.1.1.2.31.2.48,0,.03.07.07.14.07.32.16-.02.45-.14.13-.01-.07-.04-.1-.06-.13-.1-.14-.16-.31-.21-.48l-.13-.12Z"/><polygon class="cls-1" points="185.84 55.67 185.91 55.77 185.84 55.83 185.77 55.77 185.84 55.67"/><rect class="cls-1" x="184.14" y="51.47" width=".1" height=".1" transform="translate(17.54 145.37) rotate(-45.01)"/><rect class="cls-1" x="184.28" y="51.74" width=".1" height=".1" transform="translate(17.39 145.54) rotate(-45.01)"/><path class="cls-1" d="M113.37,52.21l-.63,1.71c-.1,0-.17,0-.21-.02l.53-1.65c.03-.08,0-.21.07-.26.05-.03.31,0,.23.22Z"/><rect class="cls-1" x="113.37" y="51.74" width=".1" height=".1" transform="translate(-3.39 95.39) rotate(-45.01)"/><path class="cls-1" d="M213.91,87.88c-.02.45-.42.39-.78.55l-1.29.58c-.17-.74.94-1.05,1.91-1.37.04-.19.18-.08.18.05v.18Z"/><path class="cls-1" d="M198.27,95.06l-.37.13c-.13.04-.27-.07-.2-.21.03-.08.25-.1.4-.12.21-.27.45.11.17.21Z"/><path class="cls-1" d="M211.42,89.17c-.07.1-.18.13-.3.13l.05-.21s.08-.1.13-.05l.12.13Z"/><path class="cls-1" d="M197.29,95.33l.08-.17c.25,0,.16.27-.08.17Z"/><path class="cls-1" d="M105.92,97.43l-.97-.43-.95-.41c0-.2-.04-.36.01-.57l2.43,1.19-.53.23Z"/><path class="cls-1" d="M102.67,95.99c-.27.06-.48-.15-.71-.2,0-.34.18-.34.39-.25.24.1.31.23.32.45Z"/><path class="cls-1" d="M107.29,97.79l-.44-.26c.1-.23.25-.16.33-.09.09.08.19.15.11.35Z"/><path class="cls-1" d="M103.19,96.31l-.28-.14c.01-.08.05-.14.09-.16.08-.04.2.03.19.08v.23Z"/><polygon class="cls-1" points="106.58 97.31 106.67 97.31 106.76 97.31 106.67 97.31 106.58 97.31 106.49 97.31 106.58 97.31"/><rect class="cls-1" x="108.02" y="97.53" width=".1" height=".1" transform="translate(-37.35 105.03) rotate(-45.01)"/><path class="cls-1" d="M228.06,80.31c-.27.08-.53-.02-.8-.21.25-.25.63-.14.8.21Z"/><polygon class="cls-3" points="157.99 34.04 158 34.12 158 34.22 157.99 34.31 157.99 34.22 157.99 34.12 157.99 34.04"/><polygon class="cls-3" points="225.09 64.81 225.18 64.81 225.27 64.81 225.18 64.82 225.09 64.82 225 64.81 225.09 64.81"/><polygon class="cls-3" points="68.43 99.78 68.49 99.91 68.43 99.98 68.36 99.91 68.43 99.78"/><path class="cls-3" d="M111.46,54.91c.09-.09.21-.04.24.04.06.14-.18.33-.21.32-.1-.04-.11-.29-.03-.36Z"/></g><g id="Warstwa_3-2"><path class="cls-2" d="M140.9,119.53c2.83-2.72,3.61-6.81,4.85-10.4,1.76-5.82,3.41-12.95,4.8-18.92,1.02,5.95,2.23,13.06,3.67,18.88,1,3.59,1.63,7.55,4.15,10.43-5.62-3.16-8.44-14.97-9.63-21.03l3.16.09c-1.47,5.9-5.12,18.37-10.99,20.94h0Z"/><path class="cls-5" d="M152.36,96.59l7.89-5.6c2.06-1.47,1.02-4.71-1.5-4.71h-17.22c-2.55,0-3.57,3.3-1.46,4.74l8.25,5.61c1.22.83,2.84.81,4.05-.04h0Z"/><path class="cls-4" d="M167.79,76.21c0,2.08.39,3.99,1.06,5.49.88,2,2.22,3.27,3.74,3.27,2.65,0,4.79-3.92,4.79-8.76s-2.13-8.76-4.79-8.76c-1.44,0-2.74,1.17-3.63,3.01,2.73,2.85,2.34,4.76-1.18,5.74Z"/><path class="cls-6" d="M177.38,76.21c0,2.08-.39,3.99-1.06,5.49-.88,2-2.22,3.27-3.74,3.27-2.65,0-4.79-3.92-4.79-8.76s2.14-8.76,4.79-8.76c1.44,0,2.74,1.17,3.63,3.01l-4.1,4.27,5.28,1.47h0Z"/><path class="cls-4" d="M122.88,76.21c0,2.08.39,3.99,1.06,5.49.88,2,2.22,3.27,3.74,3.27,2.65,0,4.79-3.92,4.79-8.76s-2.14-8.76-4.79-8.76c-1.44,0-2.74,1.17-3.63,3.01,2.73,2.85,2.34,4.76-1.18,5.74h0Z"/><path class="cls-6" d="M132.47,76.21c0,2.08-.39,3.99-1.06,5.49-.88,2-2.22,3.27-3.74,3.27-2.65,0-4.79-3.92-4.79-8.76s2.14-8.76,4.79-8.76c1.44,0,2.74,1.17,3.63,3.01l-4.1,4.27,5.28,1.47Z"/><path class="cls-2" d="M123.36,109.79c3.95,19.99,30.04,25.87,45.51,15.21,2.55-1.76,4.78-3.99,6.36-6.6,1.9-2.41,3.22-5.36,3.71-8.61,1.02,7.33-2.76,13.16-8.7,17.2-11.25,7.58-26.95,7.58-38.19,0-5.9-4.02-9.76-9.88-8.69-17.2h0Z"/><path class="cls-2" d="M175.81,75.72c0,1.45-.26,2.79-.7,3.83-.59,1.4-1.48,2.29-2.5,2.29-1.77,0-3.2-2.74-3.2-6.12s1.43-6.12,3.19-6.12c.96,0,1.83.82,2.42,2.11l-2.74,2.98,3.52,1.03Z"/><path class="cls-2" d="M130.89,75.78c0,1.45-.26,2.79-.7,3.83-.59,1.4-1.48,2.29-2.5,2.29-1.77,0-3.2-2.74-3.2-6.12s1.43-6.12,3.19-6.12c.96,0,1.83.82,2.42,2.11l-2.74,2.98,3.52,1.03Z"/></g></svg>